# xmcd CD database file
#
# Track frame offsets:
#	183
#	17103
#	51503
#
# Disc length: 1011 seconds
#
# Revision: 0
# Processed by: cddbd v1.5.1PL0 Copyright (c) Steve Scherf et al.
# Submitted via: CDex 1.51
#
DISCID=2203f103
DTITLE=Groove Gang - Voodoo Dance
DYEAR=1997
DGENRE=Jazz
TTITLE0=Voodoo Dance (Clip Version)
TTITLE1=Voodoo Dance (Mystic Mega Dub)
TTITLE2=Du Bist Too Much (The One And Only Version)
EXTD=YEAR: 1997
EXTT0=
EXTT1=
EXTT2=
PLAYORDER=
